<?xml version="1.0" ?><svg data-name="Layer 3" id="Layer_3" viewBox="0 0 32 32" xmlns="http://www.w3.org/2000/svg"><defs><style>.cls-1{fill:#0832ff;}.cls-2{fill:none;stroke:#0832ff;stroke-miterlimit:10;}</style></defs><title/><polygon class="cls-1" points="24 13.37 24 23 26 23 26 11.37 24 13.37"/><path class="cls-1" d="M6,24H9.15l2-2H7V8H25v.44l1.9-1.86A1,1,0,0,0,26,6H6A1,1,0,0,0,5,7V23A1,1,0,0,0,6,24Z"/><path class="cls-1" d="M25,12.37V22H22a1,1,0,0,0-1,1v1l-2.4-1.8A1,1,0,0,0,18,22H15.37l-2,2h4.3l3.73,2.8a1,1,0,0,0,.6.2,1,1,0,0,0,1-1V24h3a1,1,0,0,0,1-1V10.37Z"/><rect class="cls-1" height="2" rx="1" ry="1" transform="translate(-5.73 17.03) rotate(-45)" width="30.28" x="2.55" y="14.43"/><line class="cls-2" x1="5.97" x2="10.6" y1="17.7" y2="22.33"/><line class="cls-2" x1="6.11" x2="12.08" y1="14.93" y2="20.9"/><line class="cls-2" x1="6.17" x2="13.52" y1="12.12" y2="19.47"/><line class="cls-2" x1="6.14" x2="14.94" y1="9.23" y2="18.03"/><line class="cls-2" x1="7.25" x2="16.4" y1="7.45" y2="16.6"/><line class="cls-2" x1="10.09" x2="17.79" y1="7.46" y2="15.16"/><line class="cls-2" x1="12.74" x2="19.21" y1="7.26" y2="13.73"/><line class="cls-2" x1="16.02" x2="20.74" y1="7.54" y2="12.26"/><line class="cls-2" x1="18.55" x2="22.39" y1="7.07" y2="10.91"/></svg>